<!DOCTYPE svg PUBLIC "-//W3C//DTD SVG 20010904//EN" "http://www.w3.org/TR/2001/REC-SVG-20010904/DTD/svg10.dtd">
<svg version="1.0" xmlns="http://www.w3.org/2000/svg" width="45px" height="45px" viewBox="0 0 450 450" preserveAspectRatio="xMidYMid meet">
<g id="layer101" fill="#ffffff" stroke="none">
 <path d="M0 225 l0 -225 225 0 225 0 0 225 0 225 -225 0 -225 0 0 -225z m232 67 c10 -9 20 -32 24 -50 l7 -32 -47 0 c-36 0 -46 4 -46 16 0 12 7 15 30 12 38 -6 40 15 4 38 -33 22 -72 10 -93 -28 -14 -25 -14 -29 5 -55 16 -20 31 -28 55 -29 64 -3 66 -3 45 -19 -35 -26 -94 -14 -123 24 -7 9 -13 34 -13 57 0 40 22 72 60 87 24 10 73 -2 92 -21z m129 -62 c10 0 19 -4 19 -10 0 -5 -9 -10 -20 -10 -12 0 -20 -7 -21 -17 -1 -17 -2 -17 -6 0 -2 9 -13 17 -24 17 -10 0 -19 5 -19 10 0 6 9 10 20 10 12 0 20 7 21 18 1 16 2 16 6 0 2 -10 13 -18 24 -18z"/>
 </g>

</svg>