<svg xmlns="http://www.w3.org/2000/svg" version="1.0" width="450" height="450" preserveAspectRatio="xMidYMid meet"><rect id="backgroundrect" width="100%" height="100%" x="0" y="0" fill="none" stroke="none"/>


<g class="currentLayer" style=""><title>Layer 1</title><g id="layer101" fill="#000000" stroke="none" class="selected" fill-opacity="1">
 <path d="M0 225 l0 -225 225 0 225 0 0 225 0 225 -225 0 -225 0 0 -225z m232 67 c10 -9 20 -32 24 -50 l7 -32 -47 0 c-36 0 -46 4 -46 16 0 12 7 15 30 12 38 -6 40 15 4 38 -33 22 -72 10 -93 -28 -14 -25 -14 -29 5 -55 16 -20 31 -28 55 -29 64 -3 66 -3 45 -19 -35 -26 -94 -14 -123 24 -7 9 -13 34 -13 57 0 40 22 72 60 87 24 10 73 -2 92 -21z m129 -62 c10 0 19 -4 19 -10 0 -5 -9 -10 -20 -10 -12 0 -20 -7 -21 -17 -1 -17 -2 -17 -6 0 -2 9 -13 17 -24 17 -10 0 -19 5 -19 10 0 6 9 10 20 10 12 0 20 7 21 18 1 16 2 16 6 0 2 -10 13 -18 24 -18z" id="svg_1" fill="#000000" fill-opacity="1"/>
 </g></g></svg>