<svg xmlns="http://www.w3.org/2000/svg" version="1.0" width="450" height="450" preserveAspectRatio="xMidYMid meet" style=""><rect id="backgroundrect" width="100%" height="100%" x="0" y="0" fill="none" stroke="none"/>


<g class="currentLayer" style=""><title>Layer 1</title><g id="layer101" fill="#000000" stroke="none" class="selected" fill-opacity="1">
 <path d="M83 435 c-28 -12 -33 -19 -33 -49 0 -39 15 -58 71 -87 45 -22 47 -34 19 -92 -17 -34 -19 -53 -14 -102 9 -82 31 -105 99 -105 69 0 90 23 99 107 6 56 4 66 -19 103 -31 49 -28 63 17 86 55 28 78 54 78 91 0 29 -5 36 -35 49 -46 19 -237 19 -282 -1z m245 -14 c52 -10 56 -14 48 -45 -4 -17 -23 -34 -59 -53 -61 -33 -71 -63 -38 -119 18 -31 20 -45 15 -100 -7 -70 -19 -84 -69 -84 -50 0 -62 14 -69 84 -5 55 -3 71 16 111 27 55 21 68 -43 106 -41 24 -71 70 -56 85 20 21 179 30 255 15z" id="svg_1" fill="#000000" fill-opacity="1"/>
 </g></g></svg>