<?xml version="1.0" standalone="no"?>
<!DOCTYPE svg PUBLIC "-//W3C//DTD SVG 20010904//EN"
 "http://www.w3.org/TR/2001/REC-SVG-20010904/DTD/svg10.dtd">
<svg version="1.0" xmlns="http://www.w3.org/2000/svg"
 width="512.000000pt" height="512.000000pt" viewBox="0 0 512.000000 512.000000"
 preserveAspectRatio="xMidYMid meet">
<metadata>
Created by potrace 1.15, written by Peter Selinger 2001-2017
</metadata>
<g transform="translate(0.000000,512.000000) scale(0.100000,-0.100000)"
fill="#000000" stroke="none">
<path d="M55 4586 c-17 -7 -36 -20 -43 -28 -9 -12 -12 -423 -10 -2003 l3
-1988 28 -21 28 -21 2499 0 2499 0 28 21 28 21 0 1993 0 1993 -28 21 -28 21
-2487 2 c-2033 2 -2492 0 -2517 -11z m4885 -2026 l0 -1850 -2380 0 -2380 0 0
1850 0 1850 2380 0 2380 0 0 -1850z"/>
<path d="M1265 3601 c-89 -32 -138 -63 -201 -125 -98 -98 -144 -210 -144 -349
0 -235 150 -423 385 -482 256 -64 521 102 590 370 63 246 -90 511 -339 586
-80 25 -222 24 -291 0z m218 -176 c107 -28 180 -93 218 -195 89 -236 -155
-480 -391 -391 -103 39 -168 112 -196 221 -41 162 71 336 239 370 61 12 67 11
130 -5z"/>
<path d="M3456 3058 c-19 -18 -201 -217 -406 -443 -205 -225 -390 -428 -411
-450 l-39 -40 -218 218 c-213 212 -219 217 -259 217 -30 0 -50 -7 -74 -27
-248 -209 -1498 -1321 -1511 -1344 -19 -35 -11 -81 21 -112 23 -23 82 -25 114
-4 12 8 342 297 732 641 l710 625 465 -464 c450 -449 467 -465 504 -465 52 0
96 44 96 96 0 35 -12 49 -222 261 l-222 223 26 27 c14 16 194 213 400 439
l375 411 404 -370 c650 -596 605 -557 648 -557 55 0 91 36 91 90 0 34 -7 48
-37 79 -37 38 -961 884 -1036 949 -29 24 -47 32 -77 32 -32 0 -47 -7 -74 -32z"/>
</g>
</svg>
